Coordinates
version=1
nRows=13
nColumns=36
inDegrees=yes

Units are S.I. units (second, meters, Newtons, ...)
If the header above contains a line with 'inDegrees', this indicates whether rotational values are in degrees (yes) or radians (no).

endheader
time	pelvis_tilt	pelvis_list	pelvis_rotation	pelvis_tx	pelvis_ty	pelvis_tz	hip_flexion_r	hip_adduction_r	hip_rotation_r	knee_angle_r	knee_angle_r_beta	ankle_angle_r	subtalar_angle_r	mtp_angle_r	hip_flexion_l	hip_adduction_l	hip_rotation_l	knee_angle_l	knee_angle_l_beta	ankle_angle_l	subtalar_angle_l	mtp_angle_l	lumbar_extension	lumbar_bending	lumbar_rotation	arm_flex_r	arm_add_r	arm_rot_r	elbow_flex_r	pro_sup_r	arm_flex_l	arm_add_l	arm_rot_l	elbow_flex_l	pro_sup_l
      0.00000000	      9.64031929	     -0.53317486	      3.37500629	     -0.50457199	      0.57251796	     -0.70216431	     79.24827315	    -17.05405334	      6.46865464	    102.22403142	      1.78414592	     20.82458563	      4.60567955	     -5.21696720	     80.11899776	     -9.64559292	      7.04599190	    100.76007336	      1.75859503	     18.56594682	      0.35213023	     -5.21696720	    -22.84378204	     -0.06051603	     -3.14364909	      0.15085354	     -1.75541833	    -14.11100111	    137.52247437	      5.20310186	      0.10769223	     -3.49795816	    -11.53197143	    136.49687157	    101.53093733
      0.01000000	      9.67087018	     -0.53882972	      3.40273717	     -0.50461404	      0.57259461	     -0.70220653	     79.21022725	    -17.08258373	      6.45025706	    102.22506356	      1.78416394	     20.80190438	      4.58099871	     -5.25897059	     80.08764272	     -9.61621061	      7.05435766	    100.76158310	      1.75862138	     18.55977529	      0.33459988	     -5.25897059	    -22.88996393	     -0.04209896	     -3.18614212	      0.19096932	     -1.73073458	    -14.08289965	    137.56745153	      4.95931694	      0.08560150	     -3.43521957	    -11.63850610	    136.37025533	    102.73741376
      0.02000000	      9.73233673	     -0.51683899	      3.39264073	     -0.50469916	      0.57270242	     -0.70218102	     79.15176057	    -17.07584020	      6.47853097	    102.22379922	      1.78414187	     20.88137464	      4.64212661	     -5.31008648	     80.00080557	     -9.61164708	      7.04735336	    100.74853255	      1.75839361	     18.58801067	      0.39758710	     -5.31008648	    -23.00114050	     -0.06448356	     -3.14289108	      0.20381051	     -1.73591020	    -14.09762642	    137.59502537	      5.36849200	      0.12888252	     -3.40058589	    -11.58620146	    136.56697249	    101.40992225
      0.03000000	      9.69461947	     -0.54234553	      3.40634912	     -0.50472336	      0.57263198	     -0.70218778	     79.18403532	    -17.08460953	      6.43327506	    102.20951044	      1.78389248	     20.80772558	      4.55041575	     -6.02829907	     80.06353659	     -9.61637380	      7.06014326	    100.74973636	      1.75841462	     18.56754718	      0.34605339	     -6.02829907	    -22.95685620	     -0.03721108	     -3.15624394	      0.20723687	     -1.77677345	    -14.07760259	    137.61153543	      4.94309201	      0.11662518	     -3.45341174	    -11.59399556	    136.37986727	    102.74591906
      0.04000000	      9.74423694	     -0.49357305	      3.43774246	     -0.50477724	      0.57277626	     -0.70237577	     79.13335027	    -17.16382329	      6.47042474	    102.20326287	      1.78378344	     20.80733700	      4.56125853	     -6.27990139	     79.97820856	     -9.54711696	      7.00635872	    100.73290598	      1.75812087	     18.56674608	      0.31046327	     -6.27990139	    -23.04636249	     -0.04910393	     -3.26846840	      0.30785731	     -1.84178372	    -13.96027147	    137.58730546	      4.87235894	      0.06471292	     -3.43053709	    -11.57118018	    136.61886621	    101.09433956
      0.05000000	      9.79453088	     -0.39534328	      3.46087791	     -0.50484836	      0.57298851	     -0.70259774	     79.09966260	    -17.24021442	      6.57796115	    102.18851382	      1.78352602	     20.77026516	      4.49344696	     -6.50584749	     79.86048254	     -9.44745932	      6.90066347	    100.69218079	      1.75741009	     18.43692789	      0.10505361	     -6.50584749	    -23.16064633	     -0.12857967	     -3.20241634	      0.24592500	     -1.94244174	    -13.95017164	    137.70776865	      4.95245288	      0.14704392	     -3.48654372	    -10.91094072	    137.38259517	     93.86180499
      0.06000000	      9.90792205	     -0.36433994	      3.51607684	     -0.50496173	      0.57326989	     -0.70287236	     78.96052887	    -17.37027695	      6.57244686	    102.19216626	      1.78358977	     21.04779887	      4.86027113	     -6.57526729	     79.70367717	     -9.37630840	      6.85349548	    100.66923792	      1.75700966	     18.63298102	      0.23515786	     -6.57526729	    -23.33405972	     -0.08946590	     -3.29034848	      0.37200481	     -1.93642328	    -14.02607446	    137.70389538	      4.88777070	      0.17741904	     -3.45263287	    -11.05202885	    137.34130806	     94.31057168
      0.07000000	      9.88092020	     -0.43803855	      3.50714315	     -0.50502125	      0.57331089	     -0.70283547	     78.93747910	    -17.32051401	      6.48291321	    102.14800009	      1.78281893	     20.96720178	      4.72073009	     -6.88084996	     79.76511275	     -9.41331414	      6.92871933	    100.66766194	      1.75698215	     18.53337710	      0.16535130	     -6.88084996	    -23.33438268	     -0.02145905	     -3.23610104	      0.39606088	     -2.01516784	    -13.98927442	    137.70739603	      4.93800686	      0.21629656	     -3.48449164	    -11.49764528	    136.38719241	    102.69351803
      0.08000000	      9.84030378	     -0.43976033	      3.52065741	     -0.50505208	      0.57332543	     -0.70287463	     78.96392966	    -17.33645524	      6.50325700	    102.13158628	      1.78253245	     21.04766129	      4.91456211	     -6.95709559	     79.80547416	     -9.40927349	      6.91912470	    100.65334825	      1.75673233	     18.55253296	      0.28243353	     -6.95709559	    -23.32817895	      0.00046471	     -3.30169411	      0.46438763	     -2.06069684	    -13.82746789	    137.68492844	      4.84347934	      0.16718860	     -3.53573897	    -11.31324275	    136.77073981	     99.60763788
      0.09000000	      9.86009636	     -0.45525644	      3.56811453	     -0.50519103	      0.57349346	     -0.70303797	     78.91279059	    -17.38596145	      6.47770171	    102.10513397	      1.78207077	     21.01951725	      4.85013253	     -7.01721262	     79.77567729	     -9.34573952	      6.93224938	    100.61352675	      1.75603731	     18.48727295	      0.13876569	     -7.01721262	    -23.42856034	      0.05704239	     -3.30394418	      0.51869253	     -2.15188425	    -13.77974130	    137.74060934	      4.79515885	      0.23778549	     -3.54040380	    -11.24466947	    136.74990110	     99.69020798
      0.10000000	      9.85049607	     -0.49714977	      3.62257624	     -0.50528320	      0.57360409	     -0.70313226	     78.86623950	    -17.42249953	      6.42912399	    102.06994219	      1.78145656	     21.19781820	      5.12612230	     -7.05831842	     79.80369271	     -9.29304663	      6.99570100	    100.60776102	      1.75593668	     18.53661576	      0.24209924	     -7.05831842	    -23.48117914	      0.13633864	     -3.36736813	      0.62513731	     -2.17813501	    -13.70525657	    137.67032328	      5.13601593	      0.26187413	     -3.60516759	    -11.29236344	    136.75026325	     99.29057922
      0.11000000	      9.97849438	     -0.55187915	      3.64803915	     -0.50550608	      0.57400438	     -0.70323497	     78.65093622	    -17.41770694	      6.31619500	    102.01119131	      1.78043116	     21.15281884	      4.82347915	     -7.07957747	     79.65085668	     -9.27756202	      7.05216126	    100.54886735	      1.75490879	     18.48408561	      0.10723055	     -7.07957747	    -23.78306051	      0.23484590	     -3.32326537	      0.79798015	     -2.35879177	    -13.65597379	    137.79271328	      4.75501125	      0.39409180	     -3.56076989	    -11.13757155	    136.87716827	     99.02433547
      0.12000000	      9.98786732	     -0.60796510	      3.65991277	     -0.50559978	      0.57418360	     -0.70326793	     78.56793469	    -17.39230229	      6.25511174	    101.95482364	      1.77944736	     21.23030239	      4.84138559	     -7.23977617	     79.63821027	     -9.28537789	      7.10008002	    100.52452489	      1.75448394	     18.50939143	      0.12055949	     -7.23977617	    -23.93499993	      0.32066350	     -3.30224633	      0.93751567	     -2.46270686	    -13.56659593	    137.87104581	      4.93153812	      0.46859442	     -3.58483854	    -11.26848935	    136.59582892	    102.03037376
